<?xml version="1.0" standalone="no"?>
<!DOCTYPE svg PUBLIC "-//W3C//DTD SVG 20010904//EN"
 "http://www.w3.org/TR/2001/REC-SVG-20010904/DTD/svg10.dtd">
<svg version="1.0" xmlns="http://www.w3.org/2000/svg"
 width="38.000000pt" height="39.000000pt" viewBox="0 0 38.000000 39.000000"
 preserveAspectRatio="xMidYMid meet">

<g transform="translate(0.000000,39.000000) scale(0.100000,-0.100000)"
fill="#000000" stroke="none">
<path d="M40 340 c-18 -18 -20 -33 -20 -150 0 -174 -4 -170 170 -170 174 0
170 -4 170 170 0 174 4 170 -170 170 -117 0 -132 -2 -150 -20z m175 -46 c14
-15 25 -33 25 -40 0 -7 15 -20 34 -29 59 -28 70 -92 23 -142 -18 -20 -30 -23
-98 -23 -43 0 -85 3 -94 6 -28 11 -45 60 -45 129 0 60 3 69 29 96 39 39 92 40
126 3z"/>
<path d="M110 261 c-13 -25 -13 -117 0 -142 16 -28 154 -28 170 0 5 11 10 24
10 30 0 20 -40 51 -65 51 -21 0 -25 5 -25 28 0 15 -5 33 -12 40 -19 19 -66 15
-78 -7z"/>
</g>
</svg>
