<?xml version="1.0" standalone="no"?>
<!DOCTYPE svg PUBLIC "-//W3C//DTD SVG 20010904//EN"
 "http://www.w3.org/TR/2001/REC-SVG-20010904/DTD/svg10.dtd">
<svg version="1.0" xmlns="http://www.w3.org/2000/svg"
 width="72.000000pt" height="70.000000pt" viewBox="0 0 72.000000 70.000000"
 preserveAspectRatio="xMidYMid meet">

<g transform="translate(0.000000,70.000000) scale(0.100000,-0.100000)"
fill="#000000" stroke="none">
<path d="M269 613 c-40 -21 -61 -40 -84 -77 -29 -48 -30 -54 -33 -189 l-4
-140 134 5 c145 5 176 14 236 71 40 39 67 120 57 177 -11 65 -58 128 -118 155
-69 33 -120 32 -188 -2z m145 -77 c47 -19 66 -51 66 -109 0 -42 -5 -54 -34
-83 -33 -33 -35 -34 -121 -34 l-88 0 5 79 c5 90 22 125 71 146 41 18 60 18
101 1z"/>
<path d="M337 467 c-10 -6 -20 -29 -24 -50 l-6 -37 40 0 c46 0 63 14 63 52 0
40 -40 60 -73 35z"/>
<path d="M40 100 c0 -56 2 -60 23 -60 39 0 67 27 67 65 0 38 -20 55 -64 55
-25 0 -26 -2 -26 -60z m54 27 c23 -17 17 -47 -11 -58 -21 -8 -23 -6 -23 31 0
43 6 47 34 27z"/>
<path d="M240 150 c0 -5 7 -10 15 -10 8 0 15 5 15 10 0 6 -7 10 -15 10 -8 0
-15 -4 -15 -10z"/>
<path d="M358 154 c-12 -11 -10 -102 2 -109 6 -4 10 8 10 29 0 44 10 46 33 6
28 -47 47 -39 47 20 0 28 -4 50 -10 50 -5 0 -10 -14 -10 -32 l0 -31 -32 37
c-18 21 -36 34 -40 30z"/>
<path d="M287 138 c-6 -17 4 -81 14 -92 4 -5 16 -6 26 -2 17 7 17 8 1 17 -22
12 -24 49 -3 49 20 0 19 10 -2 26 -23 17 -30 17 -36 2z"/>
<path d="M150 96 c0 -39 15 -54 50 -51 22 1 25 7 28 43 2 33 0 42 -12 42 -11
0 -16 -10 -16 -30 0 -20 -5 -30 -15 -30 -10 0 -15 10 -15 30 0 17 -4 30 -10
30 -5 0 -10 -15 -10 -34z"/>
<path d="M250 84 c0 -27 4 -43 10 -39 13 8 13 85 0 85 -5 0 -10 -21 -10 -46z"/>
<path d="M482 118 c-19 -19 -14 -45 10 -62 19 -13 25 -14 43 -2 25 16 31 42
15 61 -15 18 -52 19 -68 3z m54 -19 c3 -6 0 -17 -7 -25 -18 -17 -44 -2 -36 20
7 18 33 21 43 5z"/>
<path d="M570 120 c0 -6 7 -27 15 -46 14 -34 35 -39 35 -8 0 8 5 14 10 14 6 0
10 -6 10 -14 0 -31 21 -26 35 8 8 19 15 40 15 46 0 19 -18 10 -24 -12 l-7 -23
-11 23 c-6 12 -14 22 -18 22 -4 0 -12 -10 -18 -22 l-11 -23 -7 23 c-6 22 -24
31 -24 12z"/>
</g>
</svg>
