<?xml version="1.0" encoding="UTF-8"?>
<!DOCTYPE svg PUBLIC "-//W3C//DTD SVG 1.1//EN" "http://www.w3.org/Graphics/SVG/1.1/DTD/svg11.dtd">
<svg xmlns="http://www.w3.org/2000/svg" version="1.1" width="911px" height="905px" style="shape-rendering:geometricPrecision; text-rendering:geometricPrecision; image-rendering:optimizeQuality; fill-rule:evenodd; clip-rule:evenodd" xmlns:xlink="http://www.w3.org/1999/xlink">
<g><path style="opacity:1" fill="#fefefe" d="M -0.5,-0.5 C 303.167,-0.5 606.833,-0.5 910.5,-0.5C 910.5,301.167 910.5,602.833 910.5,904.5C 606.833,904.5 303.167,904.5 -0.5,904.5C -0.5,602.833 -0.5,301.167 -0.5,-0.5 Z"/></g>
<g><path style="opacity:1" fill="#05ae4b" d="M 193.5,25.5 C 370.5,25.3333 547.5,25.5 724.5,26C 794.891,33.5819 844.724,69.4152 874,133.5C 880.035,148.64 884.035,164.306 886,180.5C 886.667,360.5 886.667,540.5 886,720.5C 879.471,780.975 850.304,826.808 798.5,858C 774.787,870.928 749.454,878.262 722.5,880C 546.167,880.667 369.833,880.667 193.5,880C 130.435,873.077 83.2685,842.243 52,787.5C 41.6252,766.668 35.2918,744.668 33,721.5C 32.3333,541.167 32.3333,360.833 33,180.5C 42.6558,115.202 77.1558,68.3686 136.5,40C 154.869,32.1583 173.869,27.325 193.5,25.5 Z"/></g>
<g><path style="opacity:1" fill="#fefefe" d="M 635.5,162.5 C 640.833,162.5 646.167,162.5 651.5,162.5C 651.5,192.5 651.5,222.5 651.5,252.5C 646.566,258.608 641.399,264.608 636,270.5C 635.5,234.502 635.333,198.502 635.5,162.5 Z"/></g>
<g><path style="opacity:1" fill="#fcfefc" d="M 666.5,161.5 C 671.762,161.195 676.928,161.529 682,162.5C 682.667,186.167 682.667,209.833 682,233.5C 676.667,237.5 671.333,241.5 666,245.5C 665.176,217.428 665.343,189.428 666.5,161.5 Z"/></g>
<g><path style="opacity:1" fill="#c0ead2" d="M 635.5,162.5 C 640.975,161.511 646.642,161.178 652.5,161.5C 652.831,192.005 652.498,222.338 651.5,252.5C 651.5,222.5 651.5,192.5 651.5,162.5C 646.167,162.5 640.833,162.5 635.5,162.5 Z"/></g>
<g><path style="opacity:1" fill="#fbfdfc" d="M 213.5,203.5 C 227.861,203.259 242.194,203.759 256.5,205C 265.824,205.887 274.658,208.387 283,212.5C 283.499,218.157 283.666,223.824 283.5,229.5C 260.096,219.929 235.763,216.762 210.5,220C 168.53,229.307 141.363,254.474 129,295.5C 122.359,332.904 132.526,364.737 159.5,391C 191.956,415.739 227.289,420.405 265.5,405C 274.399,401.752 281.899,396.585 288,389.5C 288.827,366.261 288.66,343.094 287.5,320C 263.836,319.5 240.169,319.333 216.5,319.5C 216.5,313.833 216.5,308.167 216.5,302.5C 245.877,302.175 275.211,302.508 304.5,303.5C 304.833,318.5 305.167,333.5 305.5,348.5C 305.645,364.564 305.145,380.564 304,396.5C 287.62,413.943 267.454,424.443 243.5,428C 196.602,435.785 158.768,420.952 130,383.5C 110.635,351.947 105.635,318.28 115,282.5C 133.196,237.794 166.029,211.461 213.5,203.5 Z"/></g>
<g><path style="opacity:1" fill="#fbfdfc" d="M 215.5,232.5 C 235.669,231.241 255.336,233.741 274.5,240C 277.412,241.373 280.246,242.873 283,244.5C 283.667,250.833 283.667,257.167 283,263.5C 271.456,255.429 258.623,250.929 244.5,250C 209.519,244.748 182.686,256.915 164,286.5C 156.461,304.062 155.461,322.062 161,340.5C 175.364,373.441 200.531,387.274 236.5,382C 243.63,380.634 250.63,378.801 257.5,376.5C 258.498,367.525 258.832,358.525 258.5,349.5C 244.5,349.5 230.5,349.5 216.5,349.5C 216.5,343.833 216.5,338.167 216.5,332.5C 235.833,332.5 255.167,332.5 274.5,332.5C 274.667,349.837 274.5,367.17 274,384.5C 266.678,390.948 258.178,395.115 248.5,397C 196.518,407.937 161.352,388.77 143,339.5C 133.755,294.162 149.589,260.995 190.5,240C 198.687,236.544 207.02,234.044 215.5,232.5 Z"/></g>
<g><path style="opacity:1" fill="#fbfdfc" d="M 343.5,307.5 C 342.686,309.631 342.186,311.964 342,314.5C 341.5,350.832 341.333,387.165 341.5,423.5C 336,424.811 330.5,424.811 325,423.5C 324.333,387.167 324.333,350.833 325,314.5C 332.495,265.907 360.828,240.241 410,237.5C 425.406,237.391 439.572,241.391 452.5,249.5C 449.336,254.179 445.503,258.179 441,261.5C 407.124,247.199 378.124,253.866 354,281.5C 348.565,289.372 345.065,298.038 343.5,307.5 Z"/></g>
<g><path style="opacity:1" fill="#fcfefc" d="M 604.5,314.5 C 604.5,350.833 604.5,387.167 604.5,423.5C 599.5,423.5 594.5,423.5 589.5,423.5C 589.832,387.996 589.498,352.663 588.5,317.5C 584.559,287.384 568.225,267.217 539.5,257C 505.512,249.75 479.012,260.583 460,289.5C 455.731,296.974 453.064,304.974 452,313.5C 447.876,338.12 452.543,360.787 466,381.5C 487.103,405.366 512.937,412.7 543.5,403.5C 545.442,408.056 546.108,413.056 545.5,418.5C 519.902,428.205 495.569,425.372 472.5,410C 451.238,395.318 438.738,375.151 435,349.5C 427.454,307.416 440.954,274.249 475.5,250C 517.966,228.256 555.133,235.089 587,270.5C 597.041,283.45 602.875,298.117 604.5,314.5 Z"/></g>
<g><path style="opacity:1" fill="#fbfdfc" d="M 716.5,237.5 C 758.069,238.023 786.903,257.356 803,295.5C 809.598,321.078 808.932,346.412 801,371.5C 780.035,412.9 746.535,429.733 700.5,422C 675.289,415.451 657.455,400.285 647,376.5C 646.333,374.5 646.333,372.5 647,370.5C 649.667,367.167 652.333,363.833 655,360.5C 655.718,359.549 656.551,359.383 657.5,360C 668.552,390.202 690.219,406.036 722.5,407.5C 752.748,405.803 773.915,391.136 786,363.5C 789.649,352.291 791.149,340.791 790.5,329C 791.29,300.911 779.957,279.244 756.5,264C 730.044,249.938 704.711,251.604 680.5,269C 657.206,289.291 636.372,311.791 618,336.5C 617.333,328.167 617.333,319.833 618,311.5C 630.877,294.63 645.044,278.797 660.5,264C 669.141,256.677 678.474,250.344 688.5,245C 697.539,240.923 706.873,238.423 716.5,237.5 Z"/></g>
<g><path style="opacity:1" fill="#fdfefd" d="M 372.5,316.5 C 371.502,351.996 371.168,387.663 371.5,423.5C 366.167,423.5 360.833,423.5 355.5,423.5C 355.5,387.5 355.5,351.5 355.5,315.5C 361.166,285.843 379.166,269.843 409.5,267.5C 417.647,267.829 425.48,269.496 433,272.5C 432.066,277.391 430.233,282.058 427.5,286.5C 426.833,286.833 426.167,287.167 425.5,287.5C 403.411,280.138 386.577,286.471 375,306.5C 373.648,309.72 372.814,313.053 372.5,316.5 Z"/></g>
<g><path style="opacity:1" fill="#fbfdfc" d="M 514.5,267.5 C 535.294,266.806 552.127,274.473 565,290.5C 570.297,298.387 573.63,307.054 575,316.5C 575.667,352.167 575.667,387.833 575,423.5C 569.593,424.473 564.093,424.807 558.5,424.5C 558.667,388.498 558.5,352.498 558,316.5C 550.918,292.036 534.752,281.87 509.5,286C 495.254,290.579 486.088,300.079 482,314.5C 481.333,325.5 481.333,336.5 482,347.5C 489.109,368.972 503.943,378.805 526.5,377C 533.153,375.672 539.32,373.172 545,369.5C 549.944,383.688 545.111,391.522 530.5,393C 497.917,396.455 476.417,382.622 466,351.5C 463.516,335.346 464.183,319.346 468,303.5C 477.42,283.402 492.92,271.402 514.5,267.5 Z"/></g>
<g><path style="opacity:1" fill="#fbfdfc" d="M 722.5,267.5 C 751.632,270.466 769.799,286.133 777,314.5C 777.667,324.5 777.667,334.5 777,344.5C 772.625,372.541 756.459,389.041 728.5,394C 697.577,394.086 677.744,379.253 669,349.5C 668.333,347.833 668.333,346.167 669,344.5C 672.76,339.317 676.76,334.317 681,329.5C 683.127,344.914 689.627,358.081 700.5,369C 716.363,380.551 732.03,380.218 747.5,368C 757.8,357.506 762.133,344.84 760.5,330C 761.736,302.904 748.902,287.737 722,284.5C 710.438,285.348 700.605,289.848 692.5,298C 683,308.167 673.5,318.333 664,328.5C 648.667,347.167 633.333,365.833 618,384.5C 617.333,375.833 617.333,367.167 618,358.5C 634.209,337.285 651.542,316.951 670,297.5C 679.399,287.093 690.232,278.593 702.5,272C 709.053,269.406 715.719,267.906 722.5,267.5 Z"/></g>
<g><path style="opacity:1" fill="#3dc073" d="M 343.5,307.5 C 342.889,346.325 342.223,384.991 341.5,423.5C 341.333,387.165 341.5,350.832 342,314.5C 342.186,311.964 342.686,309.631 343.5,307.5 Z"/></g>
<g><path style="opacity:1" fill="#ddf4e7" d="M 604.5,314.5 C 605.498,350.996 605.832,387.663 605.5,424.5C 599.833,424.5 594.167,424.5 588.5,424.5C 588.5,388.833 588.5,353.167 588.5,317.5C 589.498,352.663 589.832,387.996 589.5,423.5C 594.5,423.5 599.5,423.5 604.5,423.5C 604.5,387.167 604.5,350.833 604.5,314.5 Z"/></g>
<g><path style="opacity:1" fill="#8ddaad" d="M 355.5,315.5 C 355.5,351.5 355.5,387.5 355.5,423.5C 360.833,423.5 366.167,423.5 371.5,423.5C 371.168,387.663 371.502,351.996 372.5,316.5C 372.5,352.5 372.5,388.5 372.5,424.5C 366.5,424.5 360.5,424.5 354.5,424.5C 354.168,387.996 354.502,351.663 355.5,315.5 Z"/></g>
<g><path style="opacity:1" fill="#76d29d" d="M 543.5,403.5 C 544.209,402.596 545.209,402.263 546.5,402.5C 546.821,408.026 546.488,413.36 545.5,418.5C 546.108,413.056 545.442,408.056 543.5,403.5 Z"/></g>
<g><path style="opacity:1" fill="#fefefe" d="M 294.5,624.5 C 275.668,624.967 257.002,625.634 238.5,626.5C 237.503,648.66 237.169,670.994 237.5,693.5C 225.167,693.5 212.833,693.5 200.5,693.5C 199.501,621.669 199.167,549.669 199.5,477.5C 232.865,477.05 266.198,477.55 299.5,479C 337.657,488.001 356.657,512.168 356.5,551.5C 355.178,592.475 334.511,616.808 294.5,624.5 Z"/></g>
<g><path style="opacity:1" fill="#fdfefd" d="M 503.5,691.5 C 503.827,686.456 503.494,681.456 502.5,676.5C 501.478,676.855 500.811,677.522 500.5,678.5C 492.272,685.281 482.939,689.947 472.5,692.5C 465.196,693.302 457.862,693.635 450.5,693.5C 406.729,690.897 381.563,667.897 375,624.5C 374.333,611.167 374.333,597.833 375,584.5C 378.485,549.014 397.318,526.181 431.5,516C 460.427,508.608 487.427,512.941 512.5,529C 530.392,543.952 539.892,563.118 541,586.5C 541.667,621.5 541.667,656.5 541,691.5C 528.402,692.83 515.902,692.83 503.5,691.5 Z"/></g>
<g><path style="opacity:1" fill="#07ae4c" d="M 238.5,513.5 C 254.17,513.333 269.837,513.5 285.5,514C 307.982,517.157 318.982,530.157 318.5,553C 317.631,571.527 308.297,583.194 290.5,588C 273.521,589.414 256.521,589.747 239.5,589C 238.505,563.908 238.172,538.741 238.5,513.5 Z"/></g>
<g><path style="opacity:1" fill="#fdfefd" d="M 566.5,515.5 C 580.079,515.177 593.579,515.51 607,516.5C 607.333,553.5 607.667,590.5 608,627.5C 614.499,648.852 628.999,658.352 651.5,656C 664.985,653.179 674.152,645.346 679,632.5C 680.47,593.54 680.97,554.54 680.5,515.5C 693.5,515.5 706.5,515.5 719.5,515.5C 719.667,580.501 719.5,645.501 719,710.5C 710.805,742.353 690.305,760.52 657.5,765C 628.507,770.544 603.007,763.711 581,744.5C 580.167,732.153 580.334,719.82 581.5,707.5C 603.672,725.877 629.005,732.71 657.5,728C 671.333,724.833 679.833,716.333 683,702.5C 683.832,693.814 683.665,685.147 682.5,676.5C 672.226,686.325 659.893,691.825 645.5,693C 599.182,694.685 573.015,672.518 567,626.5C 566.5,589.502 566.333,552.502 566.5,515.5 Z"/></g>
<g><path style="opacity:1" fill="#07ae4c" d="M 448.5,550.5 C 487.108,548.442 505.442,566.775 503.5,605.5C 504.004,643.493 485.337,660.327 447.5,656C 428.01,650.844 416.51,638.344 413,618.5C 412.333,607.833 412.333,597.167 413,586.5C 417.219,566.839 429.052,554.839 448.5,550.5 Z"/></g>
<g><path style="opacity:1" fill="#45c278" d="M 294.5,624.5 C 290.688,625.324 286.688,625.824 282.5,626C 267.837,626.5 253.17,626.667 238.5,626.5C 257.002,625.634 275.668,624.967 294.5,624.5 Z"/></g>
<g><path style="opacity:1" fill="#c2ebd3" d="M 238.5,626.5 C 238.5,649.167 238.5,671.833 238.5,694.5C 225.656,694.829 212.989,694.495 200.5,693.5C 212.833,693.5 225.167,693.5 237.5,693.5C 237.169,670.994 237.503,648.66 238.5,626.5 Z"/></g>
<g><path style="opacity:1" fill="#6bcf94" d="M 503.5,691.5 C 503.135,686.906 502.135,682.573 500.5,678.5C 500.811,677.522 501.478,676.855 502.5,676.5C 503.494,681.456 503.827,686.456 503.5,691.5 Z"/></g>
<g><path style="opacity:1" fill="#53c57d" d="M 472.5,692.5 C 468.44,694.017 464.107,694.684 459.5,694.5C 456.314,694.498 453.314,694.165 450.5,693.5C 457.862,693.635 465.196,693.302 472.5,692.5 Z"/></g>
</svg>
